M48
;Layer_Color=9474304
;FILE_FORMAT=4:4
METRIC,LZ
;TYPE=PLATED
T1F00S00C0.3000
T2F00S00C0.9000
T3F00S00C1.0000
T4F00S00C1.8000
T5F00S00C4.0000
%
T01
X-0044025Y-003675
X-00426Y-00368
X-0041025Y-003675
X-00440001Y-00319999
X-004415Y-00306
X-003925Y-003125
Y-0033975
Y-0034975
Y-0037975
X-00335Y-00382448
X-003225
X-0031Y-00383
X-0031Y-00375
Y-0036
Y-00345
Y-00335
X-00309498Y-00320499
X-0031Y-00305
X-00274498Y-00333
Y-00343
X-00262498
Y-00333001
X-00250498Y-00333
Y-00343
X-002375Y-0033275
X-00236938Y-00322751
X-00224438Y-00307751
X-00214438Y-00308001
X-00201938Y-00323001
X-002025Y-00333
X-00185Y-003275
X-0017Y-0034
X-0017025Y-0035
X-001648Y-0037125
Y-003775
Y-0038375
X-00177502
X-00177552Y-003775
X-001775Y-0037125
X-00188552
Y-003775
Y-0038375
X-0020825Y-003835
Y-0037725
X-002145Y-003775
Y-0038375
X-00227248
Y-003775
Y-0037125
X-00239948
X-0024Y-003775
X-0023995Y-0038375
X-00251
Y-003775
Y-0037125
X-002375Y-0036275
X-00225Y-0034775
X-00215Y-00348
X-002025Y-00363
X-0020475Y-00372
X-002115Y-0037225
X-00208724Y-00400178
Y-004075
Y-00415
Y-004225
Y-0043
Y-004375
X-002025Y-00435
Y-004275
X-001902
Y-00435
X-001775
Y-004275
X-00176Y-00419
X-001835
X-00191
X-00191001Y-00409
X-00183501
X-00176001
X-00168501
X-00161001
X-00161Y-00419
X-001685
X-001648Y-004275
Y-00435
X-001525
Y-004275
X-00145
Y-00435
X-00135Y-00434999
Y-00427499
Y-00419999
Y-00412499
Y-00404999
X-00145Y-00405
Y-004125
Y-0042
X-00125
Y-004275
Y-00435
X-00115003Y-00435249
Y-00427749
Y-00420249
Y-00412749
Y-00405249
X-00115251Y-00397499
X-00120251Y-00392499
X-00110251
X-001Y-003925
X-0009
X-0008
X-0007
X-0006
X-0005
X-00045251Y-00399999
X-00045Y-004075
X-00045251Y-00414999
Y-00422499
Y-00429999
Y-00437499
X-00055Y-00438
Y-004305
Y-00423
Y-004155
Y-00408
X-00055Y-00401
X-00065
X-00065Y-00408
Y-004155
Y-00423
Y-004305
Y-00438
X-00095
Y-004305
Y-00423
Y-004155
Y-00408
X-00095Y-00401
X-00105
Y-00408
Y-004155
Y-00423
Y-004305
Y-00438
X-00125Y-004125
Y-00405
X-001575Y-004
X-0017
X-001825
X-00195
X-00222448Y-00400356
X-00226001Y-00409
X-00233501
X-00241001
X-00248501
X-00256001
X-00256Y-00419
X-002485
X-00241
X-002335
X-00226
X-002275Y-004275
X-00227248Y-00435
X-00215
X-00215002Y-004275
X-00239948
Y-00435
X-00252648
X-00252748Y-004275
X-002675Y-004225
X-00275
Y-0041
X-002675
X-00259948Y-00400356
X-00247448
X-00234948
X-002675Y-00435
X-00275
X-00300178Y-00441224
X-003075
X-00315
X-003225
X-0033
X-003375
X-00335Y-00434948
X-003275Y-00434945
Y-00422448
X-00335Y-004227
Y-0041
X-003275
X-003195Y-00408501
Y-00416001
Y-00423501
X-003095Y-004235
Y-00416
Y-004085
Y-00401
Y-003935
X-003195Y-00393501
Y-00401001
X-003275Y-003972
X-00335Y-003973
X-00300356Y-004025
Y-0039
Y-00415
Y-004275
X-0018525Y-003625
X-0015525
X-00152052Y-0037125
Y-003775
Y-0038375
X-0014575
Y-003775
Y-0037125
X-00155Y-003275
X-00115Y-00329999
Y-00339999
X-00105Y-003385
Y-00331
Y-003235
Y-00316
Y-003085
X-00095
Y-00316
Y-003235
Y-00331
Y-003385
X-00090251Y-00347499
X-00100251
X-00110251
X-00080251
X-00070251
X-00060251
X-00050251
X-00045251Y-00339999
Y-00329999
Y-00319999
Y-00309999
X-00055Y-003085
Y-00316
Y-003235
Y-00331
Y-003385
X-00065
Y-00331
Y-003235
Y-00316
Y-003085
X-00115Y-00309999
Y-00319999
X-00085Y-00401
X-00075
X-00005Y-004075
X00009997Y-00407
X0001Y-00395
X0001025Y-00385
X0001Y-003725
X0001Y-0036
X0001Y-003475
X0001025Y-003375
X00010003Y-003255
X0001Y-003125
X00025Y-003125
X0002525Y-00325
X-0000475
X-00005Y-003125
Y-0036
X-0000475Y-003725
X0002525
X00035245
X0005Y-003725
X00050245Y-00385
X00049995Y-00395
X00049997Y-00407
X00064995Y-004075
X00074995
X00089992Y-0040675
X00089995Y-00395
X00090245Y-00385
X00089995Y-0037225
X001025Y-003725
X00075245Y-003725
X00065245
X00064Y-00336
X00072
X0008
X00088
X00096
X00104
X00112
X0012
X00128
X00136
Y-00328
Y-0032
Y-00312
Y-00304
X00128
X0012
Y-00312
X00128
Y-0032
X0012
Y-00328
X00128
X00112
Y-0032
Y-00312
Y-00304
X00104
X00096
Y-00312
X00104
Y-0032
X00096
Y-00328
X00104
X00088
X0008
Y-0032
X00088
Y-00312
X0008
Y-00304
X00088
X00072
Y-00312
Y-0032
Y-00328
X00064
Y-0032
Y-00312
Y-00304
X00025Y-0036
Y-004075
X00034995
X00104995
X00138772Y-003725
X001525Y-0037
X00166001Y-00357499
X00166001Y-00342498
X00178Y-00335
Y-0035
X002Y-003575
Y-003425
X00221376Y-00335
Y-0035
X00233999Y-00342502
X00233999Y-00357501
X00262995Y-0037125
X00295Y-003725
X00310005Y-00373
X0031Y-00385
X0031Y-00395
X00310001Y-004075
X00325Y-004075
X00295
X00325Y-003725
X00328Y-00336
X0032
X00312
X00304
X00296
X00288
X0028
X00272
X00264
Y-00328
Y-0032
Y-00312
Y-00304
X00272
Y-00312
X0028
Y-00304
X00288
Y-00312
Y-0032
Y-00328
X0028
X00272
Y-0032
X0028
X00296
Y-00328
X00304
Y-0032
Y-00312
X00296
Y-00304
X00304
X00312
Y-00312
X0032
Y-00304
X00328
Y-00312
Y-0032
Y-00328
X0032
X00312
Y-0032
X0032
X00336
Y-00328
Y-00336
Y-00312
Y-00304
X003775Y-00315
X003775Y-00325
X003775Y-0034
X0039Y-0034
X003775Y-00355
X00233999Y-00307501
X00221376Y-00315003
X002Y-003075
X00179Y-00315
X00166001Y-00307498
X004125Y-00315
X004125Y-00325
X00412001Y-00340003
X004Y-0034
X004125Y-00355
X004125Y-00300003
X004Y-003
X004125Y-00285
Y-00275
X004125Y-00260003
X004Y-0026
X004125Y-00245
X004125Y-00234751
X00412Y-00220004
X004Y-00219751
X004125Y-00204751
X004125Y-00195
X00412Y-00180004
X004Y-0018
X004125Y-00165
Y-00155
X00412Y-00140003
X004Y-0014
X004125Y-00125
Y-00115
X00412Y-00100004
X004Y-001
X004125Y-00085
Y-00075
X004125Y-00060003
X004Y-0006
X004125Y-00045
Y-0003525
X00412Y-00020254
X004Y-0002025
X004125Y-0000525
X004125Y00005
X00412001Y00019997
X004Y0002
X004125Y00035
Y00045
X00412001Y00059997
X004Y0006
X004125Y00075
X004125Y00085
X003775Y00085
X003775Y00075
X003775Y0006
X0039Y0006
X003775Y00045
X003775Y00035
X003775Y0002
X0039Y0002
X003775Y00005
Y-00005
X003775Y-0002025
X0039Y-0002
X003775Y-00035
Y-00045
X00378Y-0006
X0039Y-0006
X003775Y-00075
Y-00085
X003775Y-001
X0039Y-001
X003775Y-00115
Y-00125
X003775Y-0014
X0039Y-0014
X003775Y-00155
Y-00165
X003775Y-0018
X0039Y-0018
X003775Y-00195
X003775Y-00204751
X003775Y-0022
X0039Y-00219751
X003775Y-00234751
Y-00245
X00378Y-0026
X0039Y-0026
X003775Y-00275
X003775Y-00285
X00378Y-003
X0039Y-003
X00336Y-00296
X00328
X0032
X00312
X00304
X00296
X00288
X0028
X00272
X00264
Y-00288
Y-0028
Y-00272
Y-00264
X00272
X0028
Y-00272
X00272
Y-0028
Y-00288
X0028
Y-0028
X00288
Y-00288
X00296
Y-0028
X00304
Y-00288
X00312
Y-0028
X0032
Y-00288
X00328
Y-0028
Y-00272
X0032
X00312
X00304
X00296
X00288
Y-00264
X00296
X00304
X00312
X0032
X00328
X00336
Y-00272
Y-0028
Y-00288
X00330001Y-00235
X00345
X003375Y-00222
X003225
X003075
X00315Y-00235
X003
X003Y-002
X00315Y-002
X0033
X00345
X003375Y-00179
X003225
X003075
X00315001Y-00166001
X00330001
X00345001Y-00166001
X00336Y-00136
X00328
X0032
X00312
X00304
X00296
X00288
X0028
X00272
X00264
Y-00128
Y-0012
Y-00112
Y-00104
Y-00096
Y-00088
Y-0008
Y-00072
Y-00064
X00272
X0028
Y-00072
X00272
Y-0008
Y-00088
X0028
Y-0008
X00288
Y-00088
Y-00096
X0028
X00272
Y-00104
Y-00112
X0028
Y-00104
X00288
Y-00112
Y-0012
Y-00128
X0028
X00272
Y-0012
X0028
X00296
Y-00128
X00304
Y-0012
Y-00112
X00296
Y-00104
X00304
Y-00096
X00296
Y-00088
Y-0008
X00304
Y-00088
X00312
Y-0008
X0032
Y-00088
Y-00096
X00312
Y-00104
Y-00112
X0032
Y-00104
X00328
Y-00112
Y-0012
Y-00128
X0032
X00312
Y-0012
X0032
X00336
Y-00128
Y-00112
Y-00104
Y-00096
X00328
Y-00088
Y-0008
Y-00072
X0032
X00312
X00304
X00296
X00288
Y-00064
X00296
X00304
X00312
X0032
X00328
X00336
Y-00072
Y-0008
Y-00088
X00330001Y-00035
X00345
X003375Y-00023
X003225
X003075
X00315Y-00035
X003
X003Y0
X00315Y0
X0033
X00345
X003375Y00021
X003225
X003075
X00300002Y00034431
X00315001
X00330001Y00034431
X00345001
X00336Y00064
X00328
X0032
X00312
X00304
X00296
X00288
X0028
X00272
X00264
Y00072
Y0008
Y00088
X00272
X0028
Y0008
X00272
Y00072
X0028
X00288
Y0008
Y00088
X00296
X00304
Y0008
X00296
Y00072
X00304
X00312
Y0008
X0032
Y00072
X00328
Y0008
Y00088
X0032
X00312
X00336
Y0008
Y00072
X00234Y00054999
X00221Y000475
Y000325
X0022Y0002
X0023Y0002
X002425Y0002
X002425Y00035
Y00005
Y-00005
X00242501Y-00020005
X0023Y-0002
X0022Y-0002
X00208001Y-00020001
X002075Y-00035
X002Y-000275
X001925Y-0002
X0018Y-0002
X0017Y-0002
X00158Y-00019997
X001575Y-00005
Y00005
X00143Y00005
X00134Y00008
Y00022
X00158Y00020003
X0017Y0002
X0018Y0002
X001925Y0002
X002Y000275
Y000125
X002075Y00005
Y-00005
X002Y-000125
X001925Y-00005
Y00005
Y00035
X002075Y00035
X00208Y00020003
X00179Y000325
Y000475
Y000625
X00166001Y00055001
X001575Y00035
X00136Y00064
Y00072
Y0008
Y00088
X00128
Y0008
X0012
Y00088
X00112
Y0008
Y00072
X0012
X00128
Y00064
X0012
X00112
X00104
X00096
Y00072
X00104
Y0008
Y00088
X00096
Y0008
X00088
Y00088
X0008
Y0008
Y00072
X00088
Y00064
X0008
X00072
Y00072
Y0008
Y00088
X00064
Y0008
Y00072
Y00064
X00070004Y00035
X00055005
X000625Y00021
X000775
X000925
X00085005Y00035
X00100005
X001Y0
X00085Y-0
X0007
X00055
X000625Y-00022
X000775
X000925
X00085001Y-00035
X001
X0007Y-00035
X00055
X0002525Y-0003975
X00025Y-00027
X0001Y-00027001
X0001Y-000145
X0001025Y-000045
X00010003Y000075
X0001Y00020499
X0001Y00033
X0001025Y00043
X00010003Y00055
X0001Y00067499
X0001Y0008
X0001025Y0009
X00025Y000675
X0002525Y000555
X-0000475
X-00005Y000675
Y000205
X-0000475Y00008
X0002525
X00025Y000205
X00010003Y-0004025
X0001025Y-0005225
X0001Y-0006225
X0001Y-0007475
X00010003Y-00088
X0001025Y-001
X0001Y-0011
X0001Y-001225
X00009991Y-001355
X00010237Y-001475
X00009987Y-001575
X00009987Y-0017
X00009991Y-00183
X00010237Y-00195
X00009987Y-00205
X00009987Y-002175
X00010006Y-0023
X00010237Y-002425
X00009987Y-002525
X00010002Y-00264501
X00010003Y-00278
X0001025Y-0029
X0001Y-003
X-0000475Y-002775
X-00005013Y-00265
X00024987
X0002525Y-002775
X00064Y-0028
Y-00272
X00072
Y-0028
X0008
X00088
Y-00272
X0008
Y-00264
X00088
X00096
X00104
X00112
X0012
X00128
X00136
Y-00272
Y-0028
Y-00288
Y-00296
X00128
Y-00288
X0012
Y-00296
X00112
Y-00288
Y-0028
Y-00272
X0012
X00128
Y-0028
X0012
X00104
Y-00272
X00096
Y-0028
Y-00288
X00104
Y-00296
X00096
X00088
Y-00288
X0008
Y-00296
X00072
Y-00288
X00064
Y-00296
Y-00264
X00072
X0007Y-00235
X00055
X000625Y-00221
X000775
X000925
X00085001Y-00235
X001
X001Y-002
X00085Y-002
X0007
X00055
X000625Y-00179
X000775
X000925
X001Y-00165
X00085
X00069999Y-00165
X00055
X00024987Y-0017
X00025237Y-001825
X-00004763
X-00005013Y-0017
X-00004763Y-00135
X-00005Y-001225
X00025
X00025237Y-00135
X00064Y-00136
X00072
X0008
X00088
X00096
X00104
X00112
X0012
X00128
X00136
Y-00128
Y-0012
Y-00112
Y-00104
Y-00096
Y-00088
Y-0008
Y-00072
Y-00064
X00128
X0012
Y-00072
X00128
Y-0008
X0012
Y-00088
X00128
Y-00096
X0012
Y-00104
X00128
Y-00112
Y-0012
X0012
Y-00112
X00112
Y-0012
Y-00128
X0012
X00128
X00104
X00096
Y-0012
X00104
Y-00112
X00096
Y-00104
X00104
X00112
Y-00096
Y-00088
Y-0008
Y-00072
Y-00064
X00104
X00096
Y-00072
X00104
Y-0008
X00096
Y-00088
X00104
Y-00096
X00096
X00088
Y-00088
X0008
Y-00096
Y-00104
X00088
Y-00112
Y-0012
X0008
Y-00112
X00072
Y-0012
Y-00128
X0008
X00088
X00064
Y-0012
Y-00112
Y-00104
X00072
Y-00096
Y-00088
Y-0008
Y-00072
X0008
X00088
Y-0008
X0008
Y-00064
X00088
X00072
X00064
Y-00072
Y-0008
Y-00088
Y-00096
X0002525Y-000875
X00025Y-0007475
X-00005
X-0000475Y-000875
X-0000475Y-0003975
X-00005Y-00027
X001575Y-00035
X00179Y-000325
Y-000475
Y-000625
X00166252Y-00054998
X002Y-00055
X001925Y-00035
X00221Y-000325
Y-000475
Y-000625
X00233999Y-00055001
X002425Y-00035
X00266Y-00022
X00261Y-00015
X00266Y-00008
X00221Y000625
X00221376Y00085
X00234749Y00092499
X002Y000925
X00179Y00085
X00166001Y00092502
X001995Y00055
X002Y-000925
Y-001075
X00179Y-001
Y-00115
Y-00135
Y-0015
Y-00165
X00166251Y-00157499
X00166252Y-00142498
X002Y-001425
Y-001575
X00222Y-0015
Y-00165
X00233999Y-00157502
X00233999Y-00142501
X00222Y-00135
X00221376Y-00115
Y-001
Y-00085
X00233999Y-00092501
X00233999Y-00107502
X00166251Y-00107499
Y-00092499
X00179Y-00085
X00134Y-00178
X00139Y-00185
X00134Y-00192
X00166001Y-00242499
Y-00257499
X00179Y-0025
Y-00265
Y-00285
Y-003
X00166Y-002925
X002
X00221376Y-00285003
Y-00300003
X00233999Y-00292502
X00233999Y-00257501
Y-00242501
X00221376Y-0025
Y-00265
X002Y-002575
Y-002425
X00179Y-00235
X00221376
X00266Y-00222
X00261Y-00215
X00266Y-00208
X003Y-00165814
X00024987Y-002175
X00025237Y-0023
X-00004763
X-00005013Y-002175
X-0001925Y-00241001
X-000175Y-002525
X-000325Y-00265
X-0003275Y-00275
X-0001775Y-002875
X-0004775
X-0005775
X-00052751Y-00292499
X-00062751
X-00072751
X-00082751
X-0008775Y-002875
X-0009775
X-00092751Y-00292499
X-00102751
X-00112751
X-00115Y-00299999
X-00105Y-003015
X-00095
X-00085
X-00075
X-00065
X-00055
X-00045251Y-00299999
X-000475Y-002525
X-000575
X-00054749Y-00238001
Y-00230501
Y-00223001
Y-00215501
Y-00208001
X-00054749Y-00201001
X-00064749
X-00064749Y-00208001
Y-00215501
Y-00223001
Y-00230501
Y-00238001
X-00045Y-002375
Y-0023
Y-002225
Y-00215
X-00044749Y-00207501
X-00045Y-002
X-00049749Y-00192501
X-00059749
X-00069749
X-00079749
X-00089749
X-00099749
X-0011Y-001925
X-0012
X-00115Y-001975
X-00114752Y-0020525
Y-0021275
Y-0022025
Y-0022775
Y-0023525
X-00125002Y-002345
Y-00227
Y-002195
Y-00212
Y-002045
X-00135002Y-00204499
Y-00211999
Y-00219499
Y-00226999
Y-00234499
X-00145002Y-002345
Y-00227
Y-002195
Y-00212
Y-002045
X-00157502Y-001995
X-00170002
X-00168501Y-00209
X-00161001
X-00161Y-00219
X-001685
X-00176
X-001835
X-00191
X-00190202Y-00227
Y-002345
X-00202502
Y-00227
X-00208726Y-002295
Y-00237
X-00215002Y-002345
X-00215005Y-00227
X-00208726Y-00222
Y-002145
Y-00207
Y-00199678
X-0022245Y-00199856
X-0023495
X-00233501Y-00209
X-00226001
X-00226Y-00219
X-002335
X-00241
X-002485
X-00256
X-00256001Y-00209
X-00248501
X-00241001
X-0024745Y-00199856
X-0025995
X-00267502Y-002095
X-00275002
Y-00222
X-00267502
Y-002345
X-00275002
X-0025265
X-0025275Y-00227
X-0023995
Y-002345
X-0022725
X-00227502Y-00227
X-00236938Y-00252751
X-00243358Y-002475
X-00253498Y-0025
X-00255Y-00295
X-00249872Y-003025
X-00236938Y-00292751
Y-00282751
X-00224438Y-00267751
X-00214438Y-00268001
X-00201938Y-00253001
Y-00283001
Y-00293001
X-0016775Y-002875
X-0015275Y-00275
X-001525Y-00265
X-001675Y-002525
X-00164802Y-002345
Y-00227
X-00152502
Y-002345
X-00177502
Y-00227
X-00176001Y-00209
X-00183501
X-00191001
X-00195002Y-001995
X-00182502
X-00177504Y-0018325
X-00177554Y-00177
X-00177502Y-0017075
X-00188554
Y-00177
Y-0018325
X-00208252Y-00183
Y-0017675
X-00214502Y-00177
Y-0018325
X-0022725
Y-00177
Y-0017075
X-0023995
X-00240002Y-00177
X-00239952Y-0018325
X-00251002
Y-00177
Y-0017075
X-0023675Y-0016375
X-00236785Y-00149005
X-0022425Y-0014875
X-0021425Y-00149
X-00211502Y-0017175
X-00204752Y-001715
X-0020175Y-00164
X-00184749Y-00162501
X-00169749Y-00150001
X-00169499Y-00140001
X-00184499Y-00127501
X-00201784Y-00124001
X-0020175Y-00134
X-0023675Y-0013375
X-00236784Y-00123751
X-00236283Y-00109504
X-00224284Y-00108751
X-00214284Y-00109001
X-00201784Y-00094001
X-00201786Y-00084002
X-00214286Y-00069002
X-00224285Y-00068752
X-00236283Y-00068005
X-00236785Y-00053752
X-00243358Y-000475
X-00253498Y-000495
X-0025265Y-0003525
X-0025275Y-0002775
X-00255151Y-00019308
X-00247651
X-00240151
X-00232651
X-00225151
X-00225152Y-00009308
X-00232652
X-00240152
X-00247652
X-00255152
X-00267502Y-0001025
X-00275002
Y-0002275
X-00267502
Y-0003525
X-00275002
X-00300176Y-00041224
X-00307498
X-00314998
X-00322498
X-00329998
X-00337498
X-00334998Y-00034948
X-00327498Y-00034945
Y-00022448
X-00334998Y-000227
Y-0001
X-00327498
X-0031865Y-00008809
Y-00016309
Y-00023809
X-0030865Y-00023807
Y-00016307
Y-00008808
Y-00001308
Y00006192
X-0031865Y00006191
Y-00001309
X-00327498Y000028
X-00334998Y000027
Y00017552
X-00322498
X-00311Y00016
X-00309498Y00025
X-00309498Y00039996
X-00309498Y00055
Y00065
X-00308996Y00079498
X-00274498Y000675
Y000575
X-00262498
Y00067499
X-00250498Y000675
Y000575
X-00236786Y00052496
X-00236785Y00065999
Y00075999
X-00236284Y00091997
X-00224285Y00090998
X-00214285Y00090748
X-00201785Y00075748
Y00065748
X-00184486Y00072479
X-00169486Y00059979
X-00169736Y00049979
X-00164802Y000285
Y0002225
Y00016
X-00177504
X-00177554Y0002225
X-00177502Y000285
X-00188554
Y0002225
Y00016
X-00208252Y0001625
Y000225
X-00214502Y0002225
Y00016
X-0022725
Y0002225
Y000285
X-0023995
X-00240002Y0002225
X-00239952Y00016
X-00251002
Y0002225
Y000285
X-00236785Y00035999
X-00224285Y00050999
X-00214285Y00050748
X-00211502Y000275
X-00204752Y0002775
X-00201785Y00035748
X-00184736Y00037479
X-00154736
X-00152054Y000285
Y0002225
Y00016
X-00145752
Y0002225
Y000285
X-00145002Y-0000525
Y-0001275
Y-0002025
Y-0002775
Y-0003525
X-00152502
Y-0002775
X-00164802
Y-0003525
X-00177502
Y-0002775
X-00175151Y-00019308
X-00182651
X-00190151
X-00190202Y-0002775
Y-0003525
X-00202502
Y-0002775
X-00208726Y-0003025
Y-0003775
X-00215002Y-0003525
X-00215005Y-0002775
X-00208726Y-0002275
Y-0001525
Y-0000775
Y-00000428
X-0022245Y-00000606
X-0023495
X-0024745
X-0025995
X-00300354Y-000025
Y0001
Y-00015
Y-000275
X-003025Y-000595
X-0031Y-00065
X-00309498Y-00079004
X-0031Y-00095
X-00309498Y-00105
Y-00120503
Y-00135
Y-00145
X-0031Y-00160004
X-00309498Y-00175
X-0031Y-00183
X-003095Y-001935
Y-00201
Y-002085
Y-00216
Y-002235
X-003195Y-00223501
Y-00216001
Y-00208501
Y-00201001
Y-00193501
X-003275Y-001972
X-00335Y-001973
Y-0021
X-003275
Y-00222448
X-00335Y-002227
Y-00234948
X-003275Y-00234946
X-0033Y-00241224
X-003375
X-003225
X-00315
X-003075
X-00300178
X-00300356Y-002275
Y-00215
Y-002025
Y-0019
X-003225Y-00182448
X-00335
X-003925Y-0016975
Y-0014225
Y-0013212
X-003925Y-001005
X-00376Y-00056251
X-00368Y-00056251
X-0036
X-00364Y-00050149
X-00372
X-0038Y-0005
X-00384Y-00044
X-00376
X-00368
X-0036
X-0038Y-00038
X-003925Y0000025
Y0003025
Y0004025
Y0007025
X-00154486Y00072479
X-00115Y00070251
Y00060251
X-00104749Y00061499
Y00068999
Y00076499
Y00083999
Y00091499
X-00094749
Y00083999
Y00076499
Y00068999
Y00061499
X-00090251Y00052751
X-00100251
X-00110251
X-00080251
X-00070251
X-00060251
X-00050251
X-00045251Y00060251
Y00070251
Y00080251
Y00090251
X-00054749Y00091499
Y00083999
Y00076499
Y00068999
Y00061499
X-00064749
Y00068999
Y00076499
Y00083999
Y00091499
X-00115Y00090251
Y00080251
X-0012Y000075
X-00115Y000025
X-00114752Y-0000525
Y-0001275
Y-0002025
Y-0002775
Y-0003525
X-00125002
Y-0002775
Y-0002025
Y-0001275
Y-0000525
X-00135002Y-00005249
Y-00012749
Y-00020249
Y-00027749
Y-00035249
X-0013725Y-00052499
X-0012725Y-000525
X-00112004Y-00051998
X-0011225Y-00065
X-001125Y-00075
X-001125Y-000925
X-00114749Y-001
Y-0011
Y-0012
Y-0013
Y-0014
X-00104749Y-00138501
Y-00131001
Y-00123501
Y-00116001
Y-00108501
Y-00101501
X-00094749
X-00094749Y-00108501
Y-00116001
Y-00123501
Y-00131001
Y-00138501
X-0009Y-001475
X-001
X-0011
X-0008
X-0007
X-0006
X-0005
X-00045Y-0014
Y-0013
Y-0012
Y-0011
Y-001
X-00054749Y-00101501
X-00054749Y-00108501
Y-00116001
Y-00123501
Y-00131001
Y-00138501
X-00064749
Y-00131001
Y-00123501
Y-00116001
Y-00108501
X-00064749Y-00101501
X-00074749
X-00084749
X-000825Y-000925
X-000725
X-000625
X-000525
X-000575Y-000875
X-0004525
X-0003025Y-00075
X-0003Y-00065
X-00045Y-000525
X-0005725
X-00072503Y-00052501
X-0007225Y-00065
X-000725Y-00075
X-000875Y-000875
X-000975
X-001025Y-000925
X-000925
X-001275Y-000875
X-001375Y-00087499
X-001525Y-00074999
X-0015225Y-00064999
X-00153503Y-00051998
X-0016725Y-00052499
X-00167651Y-00019308
X-00160151
X-00160152Y-00009308
X-00167652
X-00175152
X-00182652
X-00190152
X-00195002Y-0000025
X-00182502
X-00170002
X-00157502
X-00104749Y-00001001
Y-00008001
Y-00015501
Y-00023001
Y-00030501
Y-00038001
X-00094749
Y-00030501
Y-00023001
Y-00015501
Y-00008001
X-00094749Y-00001001
X-00084749
X-00074749
X-00064749
X-00064749Y-00008001
Y-00015501
Y-00023001
Y-00030501
Y-00038001
X-00054749
Y-00030501
Y-00023001
Y-00015501
Y-00008001
X-00054749Y-00001001
X-00045Y0
X-00044749Y-00007501
X-00045Y-00015
Y-000225
Y-0003
Y-000375
X-0001275Y-000525
Y-0008725
X-0001925Y-0012
X-0008725Y-000525
X-0009725
X-00099749Y00007499
X-00089749
X-00079749
X-00069749
X-00059749
X-00049749
X-0011Y000075
X-0002375Y00062125
X-00012749Y000625
X-001675Y-00087499
X-00154499Y-00127501
X-00154749Y-00162501
X-00152054Y-0017075
Y-00177
Y-0018325
X-00145752
Y-00177
Y-0017075
X-00164802
Y-00177
Y-0018325
X-00104749Y-00201001
Y-00208001
Y-00215501
Y-00223001
Y-00230501
Y-00238001
X-00094749
Y-00230501
Y-00223001
Y-00215501
Y-00208001
X-00094749Y-00201001
X-00084749
X-00074749
X-000875Y-002525
X-000975
X-001125Y-00265
X-0011275Y-00275
X-0012775Y-002875
X-0013775
X-001375Y-002525
X-001275
X-000725Y-00265
X-0007275Y-00275
X-00284Y-00278
X-002925Y-002775
X-00309498Y-00279
X-0031Y-00264996
X-003025Y-0026
X-0031Y-00294996
X-00361Y-00256251
X-00369
X-00377Y-00256251
X-00373Y-00250149
X-00365
X-00369Y-00244
X-00361
X-00377
X-00381Y-0025
X-00274498Y-001425
Y-001325
X-00262498Y-00132501
Y-001425
X-00250498
Y-001325
X-00249872Y-001025
X-00255Y-00095
X-00236784Y-00093751
X-00236785Y-00083751
X-0023995Y-0003525
Y-0002775
X-00227502
X-0022725Y-0003525
X-00201786Y-00054002
X-00284Y-000775
X-002925
X-004425Y-0007475
X-004425Y-00085
X-00443Y-00100004
X-004425Y-00115
X-0044025Y-0016
X-00426Y-0016
X-0041025Y-0016
X-00412251Y-002425
X-00427Y-00242
X-00442251Y-002425
X-00440001Y-00289999
X-00443Y-00060376
X-004425Y-0004475
Y-0001725
X-00443Y-00003
X-004425Y0001275
Y0002275
X-004425Y000375
X-004425Y0005275
Y0006275
X-00443Y00077
X-0043Y0007775
X-004425Y0009275
X-0043925Y00244
X-00424Y0024225
X-0040925Y00244
X-0044Y0029125
X-00441Y00305
X-0044Y0032125
X-00442904Y00370499
X-00428Y00371201
X-00412904Y00370499
X-0041275Y004545
X-004275Y004545
X-0044275Y004545
X-003925Y0044775
Y0047775
Y0048775
X-00309498Y00479498
X-0031Y00465
Y00455
X-0031Y00439996
X-0031Y00426
X-00311323Y00417803
X-00323823
X-00336323
Y00402951
X-00328823Y00403051
X-003195Y00406499
Y00398999
Y00391499
Y00383999
Y00376499
X-003095Y003765
Y00384
Y003915
Y00399
Y004065
X-00301679Y00410251
Y00397751
Y00385251
Y00372751
X-00301501Y00359027
X-00308823
X-00316323
X-00323823
X-00331323
X-00338823
X-00336323Y00365303
X-00328823Y00365305
Y00377803
X-00336323Y00377551
Y00390251
X-00328823
X-00275002Y0039
X-00267502
Y003775
X-00275002
Y00365
X-00267502
X-0025265
X-0025275Y003725
X-00256Y00381
X-002485
X-00241
X-002335
X-00226
X-00226001Y00391
X-00233501
X-00241001
X-00248501
X-00256001
X-0025995Y00399644
X-0024745
X-0023495
X-0022245
X-00208726Y00399822
Y003925
Y00385
Y003775
Y0037
Y003625
X-00202502Y00365
Y003725
X-00190202
Y00365
X-00177502
Y003725
X-00176Y00381
X-001835
X-00191
X-00191001Y00391
X-00183501
X-00176001
X-00168501
X-00161001
X-00161Y00381
X-001685
X-00164802Y003725
Y00365
X-00152502
Y003725
X-00145002
Y00365
X-00135002Y00365001
Y00372501
Y00380001
Y00387501
Y00395001
X-00145002Y00395
Y003875
Y0038
X-00125002
Y003875
Y00395
X-00114752Y00395
Y003875
Y0038
Y003725
Y00365
X-00125002Y00365
Y003725
X-00104749Y00369749
Y00362249
X-00094749
Y00369749
Y00377249
Y00384749
Y00392249
X-00094749Y00399249
X-00104749
Y00392249
Y00384749
Y00377249
X-00109748Y00347751
X-00110001Y00335
X-00110252Y00325
X-0011Y003075
X-001
X-00095252Y003125
X-00085252
X-0009Y003075
X-0008
X-0007
X-0006
X-00055251Y003125
X-00045251
X-0005Y003075
X-00045Y003
Y0029
Y0028
Y0027
Y0026
X-00054749Y00261499
Y00268999
Y00276499
Y00283999
Y00291499
X-00054749Y00298499
X-00064749
X-00064749Y00291499
Y00283999
Y00276499
Y00268999
Y00261499
X-0006Y002525
X-0007
X-0008
X-0009
X-001
X-0011
X-00114749Y0026
Y0027
Y0028
Y0029
Y003
X-00104749Y00298499
Y00291499
Y00283999
Y00276499
Y00268999
Y00261499
X-00094749
Y00268999
Y00276499
Y00283999
Y00291499
X-00094749Y00298499
X-00084749
X-00074749
X-00070251Y00325
X-00070001Y00335
X-00070247Y00347249
X-00085001Y003475
X-00095001
X-00125001
X-00135001
X-00151247Y00347751
X-00150001Y00335
X-00150252Y00325
X-00135252Y003125
X-00125252
X-00165252
X-00165001Y003475
X-00201786Y00345998
X-00214286Y00330998
X-00224285Y00331249
X-00236785Y00316248
Y00306748
X-002475Y002975
X-00255Y003025
X-00250498Y002675
Y002575
X-00262498
Y00267499
X-00274498Y002675
Y002575
X-00309498Y00255
Y00265
X-00308996Y00279498
X-00309498Y00295
X-00309498Y00305
X-00308996Y00320997
X-00309498Y00335
X-003025Y003405
X-00292499Y00322499
X-00284Y00322
X-00253498Y003505
X-002425Y003525
X-00236785Y00346249
X-0023995Y00365
Y003725
X-00227502
X-0022725Y00365
X-00215002
X-00215005Y003725
X-00214502Y0041625
Y004225
X-00208252Y0042275
Y004165
X-00211502Y0042775
X-00204752Y00428
X-00201784Y00435749
X-00184749Y00437499
X-00188554Y0042875
Y004225
Y0041625
X-00177504
X-00177554Y004225
X-00177502Y0042875
X-00164802
Y004225
Y0041625
X-00152054
Y004225
Y0042875
X-00145752
Y004225
Y0041625
X-00157502Y004
X-00170002
X-00182502
X-00195002
X-0022725Y0041625
Y004225
Y0042875
X-0023995
X-00240002Y004225
X-00239952Y0041625
X-00251002
Y004225
Y0042875
X-00236784Y00435999
X-00236785Y00450994
X-00224284Y00450999
X-00214284Y00450749
X-00201784Y00465749
X-00201784Y00475749
X-00184499Y00472499
X-00169499Y00459999
X-00169749Y00449999
X-00154749Y00437499
X-00154499Y00472499
X-00114749Y0047025
Y0046025
X-00104749Y00461749
Y00469249
Y00476749
Y00484249
X-00094749
Y00476749
Y00469249
Y00461749
X-0009Y0045275
X-001
X-0011
X-0008
X-0007
X-0006
X-0005
X-00045Y0046025
Y0047025
Y0048025
Y0049025
X-00054749Y00484249
Y00476749
Y00469249
Y00461749
X-00064749
Y00469249
Y00476749
Y00484249
X-00114749Y0048025
Y0049025
X-0011Y0040775
X-0012
X-00115Y0040275
X-00099749Y00407749
X-00089749
X-00079749
X-00069749
X-00059749
X-00049749
X-00045Y0040025
X-00044749Y00392749
X-00045Y0038525
Y0037775
Y0037025
Y0036275
X-00054749Y00362249
Y00369749
Y00377249
Y00384749
Y00392249
X-00054749Y00399249
X-00064749
X-00064749Y00392249
Y00384749
Y00377249
Y00369749
Y00362249
X-00055001Y003475
X-00045001
X-0003525Y003575
X-000125Y003475
Y00312499
X-000175Y00285
X-0003
X-0002375Y002775
X-0005Y002525
X-00049749Y00207499
X-00059749
X-00069749
X-00079749
X-00089749
X-00099749
X-0011Y002075
X-0012
X-00124752Y002025
Y0019475
Y0018725
Y0017975
Y0017225
Y0016475
X-00114752
Y0017225
Y0017975
Y0018725
Y0019475
X-00115Y002025
X-00104749Y00198999
Y00191999
Y00184499
Y00176999
Y00169499
Y00161999
X-00094749
Y00169499
Y00176999
Y00184499
Y00191999
X-00094749Y00198999
X-00084749
X-00074749
X-00064749
X-00064749Y00191999
Y00184499
Y00176999
Y00169499
Y00161999
X-00054749
Y00169499
Y00176999
Y00184499
Y00191999
X-00054749Y00198999
X-00045Y002
X-00044749Y00192499
X-00045Y00185
Y001775
Y0017
Y001625
X-00045Y001475
X-00055
X-00069996
X-0007Y00135
X-0007025Y00125
X-00070251Y00107751
X-00080251
X-0008525Y001125
X-00090251Y00107751
X-0009525Y001125
X-00100251Y00107751
X-00110251
X-00115Y00100251
X-00104749Y00098499
X-00094749
X-00084749
X-00074749
X-00064749
X-00054749
X-00045251Y00100251
X-0004525Y001125
X-00050251Y00107751
X-0005525Y001125
X-00060251Y00107751
X-0003025Y00125
X-0003Y00135
X-000125Y0014725
X-00015Y00157999
X-0002375Y001625
X-000125Y00112501
X-00085Y001475
X-00095
X-00109497Y00148002
X-0011Y00135
X-0011025Y00125
X-0012525Y001125
X-0013525
X-0015025Y00125
X-0015Y00135
X-00150996Y00148002
X-00165Y001475
X-00164552Y0016475
Y0017225
X-001615Y0018
X-00169
X-001765
X-00184
X-001915
X-00189952Y0017225
Y0016475
X-00202252
Y0017225
X-00208476Y0016975
Y0016225
X-00214752Y0016475
X-00214755Y0017225
X-00208476Y0017725
Y0018475
Y0019225
Y00199572
X-002222Y00199394
X-002347
X-00234001Y0019
X-00226501
X-002265Y0018
X-00234
X-002415
X-00249
X-002565
X-00256501Y0019
X-00249001
X-00241501
X-002472Y00199394
X-002597
X-00267252Y0018975
X-00274752
Y0017725
X-00267252
Y0016475
X-00274752
X-002524
X-002525Y0017225
X-002397
Y0016475
X-00227
X-00227252Y0017225
X-00236786Y001475
X-00243358Y001525
X-00253498Y001505
X-00236284Y00133496
X-00224286Y001325
X-00214286Y0013225
X-00201786Y0014725
Y0011725
X-00201785Y00105748
X-00236785Y00105998
X-00236786Y001175
X-00255Y00105
X-00249872Y000975
X-00284Y001225
X-002925
X-00308996Y00120997
X-00309498Y00135
X-003025Y001405
X-00300178Y00158776
X-003075
X-00315
X-003225
X-0033
X-003375
X-00335Y00165052
X-003275Y00165054
Y00177552
X-00335Y001773
Y0019
X-003275
X-0032Y00190499
Y00197999
Y00205499
X-0031Y002055
Y00198
Y001905
Y00183
Y001755
X-0032Y00175499
Y00182999
X-00300356Y00185
Y001975
Y0021
X-00310748Y00217
X-00309498Y00225
X-00309498Y00239996
X-003225Y00217552
X-00335
Y002027
X-003275Y002028
X-00300356Y001725
X-00309498Y00105
X-00309498Y00095
X-0036Y00142749
X-00368
X-00376Y00142749
X-00372Y00148851
X-00364
X-00368Y00155
X-0036
X-00376
X-0038Y00149
X-003925Y0023275
Y0026275
Y0027275
X-00393Y00303
X-00376Y00343749
X-00368Y00343749
X-0036
X-00364Y00349851
X-00372
X-0038Y0035
X-00376Y00356
X-00384
X-0038Y00362
X-00368Y00356
X-0036
X-00274498Y00457499
Y00467499
X-00262498
Y004575
X-00250498Y00457499
Y00467499
X-00236784Y00465999
X-00236784Y00475999
X-00236283Y00490496
X-00201786Y00315998
Y00306498
X-00214286Y00291498
X-00224285Y00291748
X-00236785Y00276748
X-00236787Y00266731
X-00224287Y00251731
X-00214287Y00251481
X-00211252Y002275
X-00204502Y0022775
X-00208002Y002225
Y0021625
X-00214252Y00216
Y0022225
X-00227
Y00216
Y002285
X-002397
X-00239752Y0022225
X-00239702Y00216
X-00250752
Y0022225
Y002285
X-00236787Y00236731
X-00201787Y00236481
X-0018525Y002375
X-00188304Y002285
Y0022225
Y00216
X-00177254
X-00177304Y0022225
X-00177252Y002285
X-00164552
Y0022225
Y00216
X-00151804
Y0022225
Y002285
X-00145502
Y0022225
Y00216
X-00144752Y0019475
Y0018725
Y0017975
Y0017225
Y0016475
X-00152252
Y0017225
X-00134752Y00172251
Y00164751
Y00179751
Y00187251
Y00194751
X-00157252Y0019975
X-00169752
X-00169001Y0019
X-00161501
X-00176501
X-00184001
X-00191501
X-00194752Y0019975
X-00182252
X-00177252Y0017225
Y0016475
X-00135Y001475
X-00125
X-0016525Y001125
X-0015525Y002375
X-0017025Y0025
X-0017Y0026
X-00185Y002725
X-00201786Y00276498
X-00201787Y00266481
X-00155Y002725
X-00084749Y00399249
X-00074749
X-00005Y004015
X-0000475Y003875
X00010003Y00387
X0001025Y00375
X0001Y00365
X0001Y003525
X00010003Y003395
X0001025Y003275
X0001Y003175
X0001Y00305
X00010003Y00292
X0001025Y0028
X0001Y0027
X0001Y002575
X00010003Y002445
X0001025Y002325
X0001Y002225
X0001Y0021
X00010003Y00197
X0001025Y00185
X0001Y00175
X0001Y001625
X00010003Y001495
X0001025Y001375
X0001Y001275
X0001Y00115
X00010003Y00102
X-0000475Y001025
X-00005Y00115
X00025
X0002525Y001025
X00064Y00104
Y00112
X00072
Y00104
X0008
X00088
Y00112
X0008
Y0012
X00088
Y00128
X0008
Y00136
X00088
X00096
X00104
X00112
X0012
X00128
X00136
Y00128
Y0012
Y00112
Y00104
Y00096
X00128
X0012
Y00104
X00128
Y00112
X0012
Y0012
X00128
Y00128
X0012
X00112
Y0012
Y00112
Y00104
Y00096
X00104
X00096
Y00104
X00104
Y00112
X00096
Y0012
X00104
Y00128
X00096
X00072
Y0012
X00064
Y00128
Y00136
X00072
X0007Y00165
X00055
X000625Y00178
X000775
X000925
X00085001Y00165
X001
X001Y002
X00085Y002
X0007
X00055
X000625Y00221
X000775
X000925
X00099995Y00234999
X00084995
X00069994Y00234999
X00054995
X00064Y00264
X00072
X0008
X00088
X00096
X00104
X00112
X0012
X00128
X00136
Y00272
Y0028
Y00288
Y00296
Y00304
Y00312
Y0032
Y00328
Y00336
X00128
X0012
Y00328
X00128
Y0032
X0012
Y00312
X00128
Y00304
X0012
Y00296
X00128
Y00288
Y0028
X0012
Y00288
X00112
Y0028
Y00272
X0012
X00128
X00104
X00096
Y0028
X00104
Y00288
X00096
Y00296
X00104
X00112
Y00304
Y00312
Y0032
Y00328
Y00336
X00104
X00096
Y00328
X00104
Y0032
X00096
Y00312
X00104
Y00304
X00096
X00088
Y00312
X0008
Y00304
Y00296
X00088
Y00288
Y0028
X0008
Y00288
X00072
Y0028
Y00272
X0008
X00088
X00064
Y0028
Y00288
Y00296
X00072
Y00304
Y00312
Y0032
Y00328
X0008
X00088
Y0032
X0008
Y00336
X00088
X00072
X00064
Y00328
Y0032
Y00312
Y00304
X00025Y00305
X0002525Y002925
X-0000475
X-00005Y00305
X-0000475Y0034
X-00005Y003525
X00025
X0002525Y0034
X00035Y00375001
X0005Y00375
X0005Y00387501
X0005025Y003975
X00050003Y004095
X0006525Y0041
X00075255
X0007Y004175
X0006Y00425
X000475Y0043
X0004Y004375
X00035Y004475
X00025
X0002525Y004365
X00010003Y00436
X0001Y00448
X0001Y0046
X0001025Y00469999
X00010004Y004825
X-0000475Y00482499
X0002525
X0003525
X0005025Y004825
X0005025Y00469999
X0005Y0046
X00050247Y00447999
X00065Y004475
X0006525Y00482499
X0007Y003975
X00090255Y003975
X00090005Y00387501
X0009001Y00375
X00105005Y00375001
X00075005
X00065
X0002525Y003875
X00025Y004015
X0001Y00401499
X-0000475Y004365
X-00005Y004475
X00090013Y00409501
X00105255Y0041
X00132Y00388
X00139Y00381501
X00142Y00374
X001575Y00375
X00166001Y00357502
X00166001Y00342501
X00179Y0035
Y00335
Y00315
Y003
Y00285
Y00265
Y0025
Y00235
X00166001Y00242501
X00166Y00257501
X002Y002575
Y002425
X00221376Y0025
Y00235
X00234Y00242499
X00233999Y00257498
X00221376Y00265
Y00285
Y003
Y00315
X00233999Y00307498
X00234Y00292499
X00264Y00296
Y00288
Y0028
Y00272
Y00264
X00272
X0028
Y00272
X00272
Y0028
X0028
Y00288
X00272
Y00296
X0028
Y00304
X00272
X00264
Y00312
Y0032
Y00328
Y00336
X00272
X0028
Y00328
X00272
Y0032
Y00312
X0028
Y0032
X00288
Y00312
Y00304
Y00296
Y00288
Y0028
Y00272
Y00264
X00296
X00304
Y00272
X00296
Y0028
X00304
Y00288
X00296
Y00296
X00304
Y00304
X00296
Y00312
Y0032
X00304
Y00312
X00312
Y0032
X0032
Y00312
Y00304
X00312
Y00296
Y00288
X0032
Y00296
X00328
Y00288
Y0028
Y00272
X0032
X00312
Y0028
X0032
Y00264
X00312
X00328
X00336
Y00272
Y0028
Y00288
Y00296
Y00304
X00328
Y00312
Y0032
Y00328
X0032
X00312
X00304
X00296
X00288
Y00336
X00296
X00304
X00312
X0032
X00328
X00336
Y00328
Y0032
Y00312
X003775Y00315
Y00325
X003775Y0034
X0039Y0034
X003775Y00355
X00371264Y00377749
X00370764Y00392747
X00358764Y00392749
X00348765Y00392749
X00336264Y0039275
X00336265Y00407749
X00336278Y0041925
X00336277Y00434
X00348778Y0043425
X00358778Y00434
X00370778Y00433997
X00371278Y00419
X00371264Y00407749
X00371278Y00449
X00359889Y00460999
X00363805Y00469251
X00359Y00485
X003255Y00470178
X00336278Y0044925
X00336265Y00377749
X00296Y004065
X002875Y00409995
X00277624Y00398501
X00271124Y00393495
X0026625Y00387
X00262Y004
Y0041
X002425Y00405
X0023Y0039
X0022Y00390012
X00221Y00365
Y0035
Y00335
X00233999Y00342498
X00233999Y00357499
X002425Y00375
X002075Y00375012
X001925Y00375
X00179Y00365
X0018Y0039
X0017Y0039
X001575Y00405
X001925Y00405
X002075Y00405012
X00214875Y00423875
X00208375Y00430875
X00202375Y00437375
X002225Y004175
X0025975Y00462249
X00267Y00458
X00271124Y00465
X00264Y00469999
X00267Y00490001
X002Y003575
Y003425
Y003075
Y002925
X00166001Y00292501
X00166001Y00307502
X00134Y00222
X00139Y00215
X00134Y00208
X00166Y00157501
X00166001Y00142502
X00179Y0015
Y00135
Y00115
Y001
X00166001Y00107502
X002Y001075
X00221376Y001
X00229Y001
X00235Y001075
X00221376Y00115
X00221Y00135
Y0015
Y00165
X00233999Y00157499
X00233999Y00142498
X002Y001425
Y001575
X00179Y00165
X00266Y00178
X00261Y00185
X00266Y00192
X003Y002
X00315Y002
X0033
X00345
X003375Y00221
X003225
X003075
X00314999Y00235
X003
X0033Y00235
X00345
X003775Y00235
X003775Y00245004
X00377999Y00260003
X0039Y00260004
X003775Y00275004
X003775Y00285
X003775Y003
X0039Y003
Y0022
X003775Y0022
X003775Y00205
Y00195
X00378Y0018
X0039Y0018
X003775Y00165
Y00155
X003775Y001405
X0039Y0014
X003775Y00125
X003775Y00115
X00378Y001
X0039Y001
X00336Y00104
X00328
X0032
X00312
X00304
X00296
X00288
X0028
X00272
X00264
Y00112
Y0012
Y00128
Y00136
X00272
X0028
Y00128
X00272
Y0012
Y00112
X0028
Y0012
X00288
Y00112
X00296
Y0012
X00304
Y00112
X00312
Y0012
X0032
Y00112
X00328
Y0012
Y00128
X0032
X00312
X00304
X00296
X00288
Y00136
X00296
X00304
X00312
X0032
X00328
X00336
Y00128
Y0012
Y00112
Y00096
X00328
X0032
X00312
X00304
X00296
X00288
X0028
X00272
X00264
X003Y00165
X00315
X00330001Y00165
X00345
X00337Y00178
X00322
X00307
X00025Y001625
X0002525Y0015
X-0000475
X-00005Y001625
X-0000475Y001975
X-00005Y0021
X00025
X0002525Y001975
X0002525Y00245
X00025Y002575
X-00005
X-0000475Y00245
X00064Y00096
X00072
X0008
X00088
X004Y001
X00412501Y00099997
X004125Y00115
X004125Y00125
X00412Y00140497
X004Y0014
X004125Y00155
Y00165
X004125Y00179997
X004Y0018
X004125Y00195
Y00205
X00412Y00219996
X004Y0022
X004125Y00235
X004125Y00245003
Y0026
X004Y00260003
X004125Y00275003
X004125Y00285
X004Y003
X004125Y00315
Y00325
X004Y0034
X004125Y00355
X00415382Y00517499
Y00535
X004065Y005525
X00422Y00555
X00425Y005945
X0044
X00439614Y006275
X00425
X00405Y00625
X003975Y0065
X004Y00665
X00392
X0041Y00665
X00435Y0067
Y0069
Y0065
X00405Y007025
Y007395
X004125Y0078
X0039466Y00576265
X0039Y00568765
X00381Y005525
X003555
X003305
X003305Y00565748
X0034Y0056525
X00346742Y00570508
X003255Y005725
X003175Y00568839
X00304Y005645
X00305Y005525
X003025Y0053875
X0032875
X00333Y00529501
X00326Y00509
X003255Y005
X00357457
X00375382Y00498868
X00256Y00492
X00248Y00494
X00249Y00502195
X00256739Y00538
X00247567Y00548933
X00236Y00549
X002225Y00545999
Y00555
Y0057
X0022192Y0058
X00235Y00582389
X00234749Y005925
X002225Y006
Y0061
X0022192Y00625746
X0023Y0063
X0021Y0062725
X00197Y00622
X0018Y0063
X00172152Y0064
X00152152
X001425Y006175
Y00607424
X001525Y006
Y0057
X00152348Y0054
X001485Y00524
X00149Y00509003
X00161Y00509
X001835Y00509
X001835Y0052375
X0019Y0054
Y00555
Y0057
Y00585
Y006
X0018Y00664079
X00162152Y0066975
X001425Y0067
X001305Y006525
X00207415Y0066
X0022Y00665
X00215Y00674748
X00209Y006805
X00221376Y00685624
X0023Y00686664
X002275Y0065675
X0026Y0066
X00267Y0064
X00283Y00609
X00287Y005995
X002775Y00599
X00301Y006025
X0033411Y006
X0034Y006075
X00349575Y00625
Y00635
X00375382Y0063725
X0038Y0063
X0039Y006255
X00383411Y00665
X00375382Y0066775
X003775Y006825
X003725Y0069
Y007
X0039Y007025
X00355Y00704751
X003695Y007395
X00384
X00335Y0075
X00333Y00769599
X00325Y0077
X00317
X00301
X00309Y0075
X00305Y00715
X00315
X003025Y00686664
X0029Y006805
X002775Y006875
X00296Y00665
X003175Y0065
X0026Y0072
Y00739
X002335Y0077625
Y007975
X002725Y008075
Y008175
Y008275
X002875Y00845
X002975
X003075
X003175
X003275
X003375Y00845
X003475Y00845
X003615Y008275
Y008175
Y008075
X0021375Y00853
X00175Y007975
X001875Y0078025
X0018Y0072
X0019625Y0070335
X00213Y00721258
X00034987Y007325
X-00005248Y00725
X-00004999Y006875
X00009751Y00688751
X00025001Y006875
X0003595Y00682548
X00024751Y006525
X00009748Y0065425
X00009751Y00665
X-00005249Y006525
X-00004998Y005775
X00010001Y00577499
X00010002Y00565
X00009752Y00555
X00009997Y00542998
X00024752Y005425
X00035Y00542498
X0003525Y00529501
X00025249
X00049996Y00529501
X0005025Y00517001
X0005Y00507001
X00049993Y00495
X00035Y00494501
X00024999
X00009999Y00507001
X00010249Y00517001
X-00004751Y00529501
X-00005248Y005425
X-00005001Y00494501
X00065
X0006525Y00529501
X00065Y00542498
X0005Y00542999
X0005Y00554998
X0005025Y00564998
X00050004Y00577499
X0003525Y00577498
X00025002Y005775
X0006525Y00577498
X000725Y00607424
Y006175
X001485Y00494
X001835Y0049375
X-0001775Y005125
X-0003275Y00525
X-000325Y00535
X-0003275Y0055766
X-00045Y005625
Y0057
Y005775
Y00585
X-00044749Y00592499
X-00045Y006
X-00054749Y00598999
X-00054749Y00591999
Y00584499
Y00576999
Y00569499
Y00561999
X-00064749
Y00569499
Y00576999
Y00584499
Y00591999
X-00064749Y00598999
X-00074749
X-00084749
X-00094749
X-00094749Y00591999
Y00584499
Y00576999
Y00569499
Y00561999
X-00104749
Y00569499
Y00576999
Y00584499
Y00591999
Y00598999
X-00099749Y00607499
X-00089749
X-00079749
X-00069749
X-00059749
X-00049749
X-0003275Y006075
X-0005Y006525
X-0006
X-0007
X-0008
X-0009
X-001
X-0011
X-00114749Y0066
Y0067
Y0068
Y0069
Y007
X-001125Y007075
X-001025
X-0009775Y007125
X-0008775
X-000925Y007075
X-000825
X-000725
X-000625
X-0005775Y007125
X-0004775
X-000525Y007075
X-00054749Y00698499
X-00054749Y00691499
Y00683999
Y00676499
Y00668999
Y00661499
X-00064749
Y00668999
Y00676499
Y00683999
Y00691499
X-00064749Y00698499
X-00074749
X-00084749
X-00094749
X-00094749Y00691499
Y00683999
Y00676499
Y00668999
Y00661499
X-00104749
Y00668999
Y00676499
Y00683999
Y00691499
Y00698499
X-001385Y0070125
X-0013775Y007125
X-0012775
X-001275Y007475
X-001375
X-00153496Y00748002
X-001525Y00735
X-001675Y007475
X-00169487Y00767499
X-00161986
X-00154488
X-00154486Y00775
Y007835
Y007925
Y008
X-00161986
X-00169486
X-00176986
X-00184485Y00799749
Y00791749
X-00184486Y007835
Y00775
Y00767499
X-00176986Y007675
Y008105
X-00169487Y00810499
X-00161986
X-00154488
X-00154486Y00818
Y008265
Y008355
X-00184485Y00834749
X-00184486Y008265
Y00818
Y00810499
X-00201785Y00745748
X-00214286Y007325
X-00224285
X-00236283Y00731995
X-00236785Y00745999
X-00253497Y00750499
X-00255Y007075
X-00249872Y007
X-00236785Y00705999
X-0024Y007125
X-00236283Y00690496
X-00224285Y00690999
X-00214285Y00690748
X-002025Y00705998
X-002Y007125
X-0016775
X-00154749Y006725
X-00169749Y0066
X-00169999Y0065
X-0016485Y0062875
Y006225
Y0061625
X-00177552
X-00177602Y006225
X-0017755Y0062875
X-00188602
Y006225
Y0061625
X-002083Y006165
Y0062275
X-0021455Y006225
Y0061625
X-00227298
Y006225
Y0062875
X-00239998
X-0024005Y006225
X-0024Y0061625
X-0025105
Y006225
Y0062875
X-00236785Y00635999
Y00650994
X-00224285Y00650999
X-00214285Y00650748
X-0021155Y0062775
X-002048Y00628
X-00201785Y00635748
X-00184999Y006375
X-00154999
X-00152102Y0062875
Y006225
Y0061625
X-001458
Y006225
Y0062875
X-0013725Y0062725
X-0013505Y00595001
Y00587501
Y00580001
Y00572501
Y00565001
X-0014505Y00565
Y005725
Y0058
Y005875
Y00595
X-0015755Y006
X-0017005
X-00169134Y00590582
X-00161634
X-00161632Y00580582
X-00169132
X-00176632
X-00184132
X-00191632
X-0019025Y005725
Y00565
X-0020255
Y005725
X-00208774Y0057
Y005625
X-0021505Y00565
X-00215052Y005725
X-00208774Y005775
Y00585
Y005925
Y00599822
X-00222498Y00599644
X-00234998
X-00234134Y00590582
X-00226634
X-00226632Y00580582
X-00234132
X-00241632
X-00249132
X-00256632
X-00256634Y00590582
X-00249134
X-00241634
X-00247498Y00599644
X-00259998
X-0026755Y0059
X-0027505
Y005775
X-0026755
Y00565
X-0027505
X-00252698
X-00252798Y005725
X-00239998
Y00565
X-00227298
X-0022755Y005725
X-00236785Y00545999
X-00243358Y00551641
X-00253498Y005505
X-00236283Y00531995
X-00224285Y00530999
X-00214285Y00530748
X-00201785Y00545748
Y00515748
X-00201784Y00505749
X-00214284Y00490749
X-00224284Y00490999
X-00236784Y00505999
X-00236785Y00515999
X-00247217Y004975
X-00254498Y005025
X-00284Y00522
X-002925Y00525
X-00309498Y00520996
X-0031Y00535
X-003025Y005405
X-00301503Y00559027
X-00308825
X-00316325
X-00323825
X-00331325
X-00338825
X-00336325Y00565303
X-00328825Y00565305
Y00577803
X-00336325Y00577551
Y00590251
X-00328825
X-00320132Y00591081
Y00583581
Y00576081
X-00310133Y00576082
Y00583582
Y00591082
Y00598582
Y00606082
X-00320132Y00606081
Y00598581
X-00328825Y0060305
X-00336325Y00602951
Y00617803
X-00323825
X-00311325
X-0031Y00626
X-0031Y00639746
X-0031Y0065475
Y0066475
X-00309498Y00679248
X-0031Y0069475
X-0031Y00704751
X-00309498Y00720747
X-0031Y0073475
X-00302499Y00740499
X-002925Y00723248
X-00284Y00722
X-00274497Y00667499
Y00657499
X-00262497Y00657499
Y00667499
X-00250497
Y00657499
X-00236785Y00665999
Y00675999
X-00201785Y00675748
Y00665748
X-00184749Y006725
X-0018255Y006
X-00184134Y00590582
X-00191634
X-0019505Y006
X-00176634Y00590582
X-0017755Y005725
Y00565
X-0016485
Y005725
X-0015255
Y00565
X-00153496Y00548252
X-001525Y0053525
X-0015275Y0052525
X-0013775Y0051275
X-0012775
X-001125Y0050775
X-00114749Y0050025
X-00104749Y00498749
Y00491749
X-00094749
X-00094749Y00498749
X-00084749
X-00074749
X-00064749
X-00064749Y00491749
X-00054749
X-00054749Y00498749
X-00045Y0050025
X-000525Y0050775
X-0004775Y005125
X-0005775
X-000625Y0050775
X-000725
X-000825
X-000925
X-0008775Y005125
X-0009775Y0051275
X-001025Y0050775
X-0011275Y0052525
X-001125Y0053525
X-00111997Y00548252
X-000975Y0054775
X-000875Y005475
X-00072496Y0054775
X-000725Y00535
X-0007275Y00525
X-000575Y005475
X-000475
X-000175
X-001275Y0054775
X-001375
X-0012505Y00565
Y005725
Y0058
Y005875
Y00595
X-00114752Y0059475
Y0058725
Y0057975
Y0057225
Y0056475
X-00115Y006025
X-0012Y006075
X-0011
X-001675Y0054775
X-0016775Y0051275
X-0031Y00505
X-0031Y00495
X-00301681Y00572751
Y00585251
Y00597751
Y00610251
X-003935Y00613
Y00643
Y00653
Y00683
X-00376Y00744749
X-00368Y00744749
X-0036
X-00364Y00750851
X-00372
X-0038Y00751
X-00376Y00757
X-00368
X-0036
X-00356001Y0081875
Y00826251
Y00834751
X-00356Y00843
Y00851
X-0035Y00855
Y00847
X-00350001Y00838751
Y00830251
Y0082275
X-003225Y008225
Y00815
Y008075
X-003175Y008275
X-003125Y008325
Y0084
Y008475
Y00855
X-00111997Y00748002
X-001125Y00735
X-000975Y007475
X-000875
X-00072496
X-000725Y00735
X-000575Y007475
X-000475
X-000325Y00735
X-000175Y007475
X-0001775Y007125
X-00045Y007
Y0069
Y0068
Y0067
Y0066
X-0036Y00555
X-00368
X-00376
X-00384
X-0038Y00549
X-00372Y00548851
X-00364
X-00368Y00542749
X-0036
X-00376Y00542749
X-0038Y00561
X-003925Y0051775
X-004415Y0051425
X-004415Y0049975
X-004415Y0052925
X-004405Y005415
X-0044275Y00554998
X-00442Y0057
X-00441375Y00580669
X-0044275Y00596
X-004415Y00610544
X-004415Y0062125
X-00442Y00636
X-004415Y0065125
X-004415Y00662
X-00442251Y006775
X-004415Y00692
T02
X-0039Y-002975
X-00351Y-003
Y-0025
X-0039Y-002475
Y-00085
Y-00035
X-0035Y-0005
Y-001
Y00099
X-0039
Y00149
X-0035
Y003
Y0035
X-00390456Y00366
Y00316
X-0039Y00531
Y00581
X-0035Y00549
Y00499
Y00701
X-0039
Y00751
X-0035
T03
X0007Y0084
X00105
X0014
T04
X-00284Y00776
X-00242
X-002
Y00831
X-00242
X-00284
X-00116
X-00074
X-00032
Y00776
X-00074
X-00116
T05
X-004125Y-004125
X004125
X002Y-002
X-004125
Y002
Y004125
X002Y002
X004125Y004125
Y00825
X-004125
M30
